<?xml version="1.0" encoding="utf-8"?>
<!-- Generator: Adobe Illustrator 18.1.0, SVG Export Plug-In . SVG Version: 6.00 Build 0)  -->
<!DOCTYPE svg PUBLIC "-//W3C//DTD SVG 1.1//EN" "http://www.w3.org/Graphics/SVG/1.1/DTD/svg11.dtd">
<svg version="1.1" xmlns="http://www.w3.org/2000/svg" xmlns:xlink="http://www.w3.org/1999/xlink" x="0px" y="0px"
	 viewBox="0 0 40 40" enable-background="new 0 0 40 40" xml:space="preserve">
<g id="Layer_1">
	<g>
		<rect x="14.2" y="10.8" fill="#009AA7" width="9.8" height="10.6"/>
		<path fill="none" stroke="#808285" stroke-width="2" stroke-miterlimit="10" d="M22.3,21.5H7c-0.6,0-1-0.5-1-1V6.1
			c0-0.6,0.4-1,1-1h15.3c0.5,0,1,0.4,1,1v14.4C23.3,21,22.9,21.5,22.3,21.5z"/>
		<path fill="none" stroke="#808285" stroke-width="2" stroke-miterlimit="10" d="M30.5,26.7H15.2c-0.6,0-1-0.5-1-1V11.3
			c0-0.6,0.4-1,1-1h15.3c0.5,0,1,0.4,1,1v14.4C31.5,26.2,31.1,26.7,30.5,26.7z"/>
	</g>
</g>
<g id="Layer_3" display="none">
	<text transform="matrix(1 0 0 1 6.6877 22.2958)" display="inline" font-family="'Helvetica-Light'" font-size="6">OpenVZ VM</text>
</g>
<g id="Layer_2">
	<rect fill="none" stroke="#808285" stroke-width="0.25" stroke-miterlimit="10" width="40" height="40"/>
</g>
</svg>
