<?xml version="1.0" encoding="utf-8"?>
<!-- Generator: Adobe Illustrator 18.1.0, SVG Export Plug-In . SVG Version: 6.00 Build 0)  -->
<!DOCTYPE svg PUBLIC "-//W3C//DTD SVG 1.1//EN" "http://www.w3.org/Graphics/SVG/1.1/DTD/svg11.dtd">
<svg version="1.1" id="Layer_2" xmlns="http://www.w3.org/2000/svg" xmlns:xlink="http://www.w3.org/1999/xlink" x="0px" y="0px"
	 viewBox="0 0 40 40" enable-background="new 0 0 40 40" xml:space="preserve">
<g id="Layer_3_1_">
	<g>
		<rect x="15" y="14.5" fill="#009AA7" width="10.9" height="11.3"/>
		<path fill="none" stroke="#808285" stroke-width="2" stroke-miterlimit="10" d="M24,26.2H6.8c-0.5,0-1-0.5-1-1V9.1
			c0-0.5,0.5-1,1-1H24c0.6,0,1,0.5,1,1v16.1C25,25.7,24.6,26.2,24,26.2z"/>
		<path fill="none" stroke="#808285" stroke-width="2" stroke-miterlimit="10" d="M33.2,31.9H16c-0.6,0-1-0.4-1-1V14.8
			c0-0.6,0.4-1,1-1h17.2c0.5,0,1,0.4,1,1v16.1C34.2,31.5,33.7,31.9,33.2,31.9z"/>
	</g>
</g>
</svg>
