<?xml version="1.0" encoding="utf-8"?>
<!-- Generator: Adobe Illustrator 18.1.0, SVG Export Plug-In . SVG Version: 6.00 Build 0)  -->
<!DOCTYPE svg PUBLIC "-//W3C//DTD SVG 1.1//EN" "http://www.w3.org/Graphics/SVG/1.1/DTD/svg11.dtd">
<svg version="1.1" id="Layer_1" xmlns="http://www.w3.org/2000/svg" xmlns:xlink="http://www.w3.org/1999/xlink" x="0px" y="0px"
	 viewBox="0 0 40 40" enable-background="new 0 0 40 40" xml:space="preserve">
<g id="Layer_1_1_">
	<g>
		<path fill="none" stroke="#009444" stroke-width="2" stroke-miterlimit="10" d="M17,23.4H4.7c-0.5,0-1-0.4-1-1V10.9
			c0-0.5,0.5-1,1-1H17c0.5,0,1,0.5,1,1v11.5C18,22.9,17.5,23.4,17,23.4z"/>
		<path fill="none" stroke="#1C75BC" stroke-width="2" stroke-miterlimit="10" d="M26.2,30.1H13.9c-0.6,0-1-0.4-1-1V17.6
			c0-0.6,0.4-1,1-1h12.3c0.5,0,1,0.4,1,1v11.5C27.2,29.7,26.8,30.1,26.2,30.1z"/>
		<path fill="none" stroke="#F15A29" stroke-width="2" stroke-miterlimit="10" d="M35.3,23.4H23c-0.5,0-1-0.4-1-1V10.9
			c0-0.5,0.5-1,1-1h12.3c0.6,0,1,0.5,1,1v11.5C36.3,22.9,35.9,23.4,35.3,23.4z"/>
	</g>
</g>
<g id="Layer_3" display="none">
	<g display="inline">
		<rect x="15.8" y="9.5" fill="#F58035" width="10.9" height="11.3"/>
		<path fill="none" stroke="#009444" stroke-width="2" stroke-miterlimit="10" d="M24.8,21.1H7.6c-0.6,0-1-0.5-1-1V4
			c0-0.5,0.4-1,1-1h17.2c0.5,0,1,0.5,1,1v16.1C25.8,20.7,25.4,21.1,24.8,21.1z"/>
		<path fill="none" stroke="#1C75BC" stroke-width="2" stroke-miterlimit="10" d="M34,26.9H16.8c-0.5,0-1-0.4-1-1V9.8
			c0-0.5,0.4-1,1-1H34c0.5,0,1,0.5,1,1v16.1C35,26.4,34.5,26.9,34,26.9z"/>
	</g>
</g>
<g id="Layer_4" display="none">
	<path display="inline" fill="none" stroke="#009BA7" stroke-width="2" stroke-miterlimit="10" d="M17.2,19H5c-0.5,0-1-0.5-1-1V6.5
		c0-0.5,0.5-1,1-1h12.3c0.6,0,1,0.5,1,1V18C18.2,18.6,17.8,19,17.2,19z"/>
	<path display="inline" fill="none" stroke="#3F403F" stroke-width="2" stroke-miterlimit="10" d="M26.5,25.8H14.2c-0.6,0-1-0.5-1-1
		V13.3c0-0.6,0.4-1,1-1h12.3c0.6,0,1,0.4,1,1v11.5C27.5,25.3,27,25.8,26.5,25.8z"/>
	<path display="inline" fill="none" stroke="#009BA7" stroke-width="2" stroke-miterlimit="10" d="M35.6,19H23.3c-0.5,0-1-0.5-1-1
		V6.5c0-0.5,0.5-1,1-1h12.3c0.6,0,1,0.5,1,1V18C36.6,18.6,36.2,19,35.6,19z"/>
</g>
<g id="raw_pc" display="none">
	<g display="inline">
		<path fill="#069CAF" d="M37.5,22.8h-35c-0.5,0-1-0.4-1-1v-7.6c0-0.6,0.5-1,1-1h35c0.5,0,1,0.4,1,1v7.6
			C38.5,22.4,38,22.8,37.5,22.8z"/>
		<rect x="26.7" y="15.9" fill="#FFFFFF" width="7.8" height="4.2"/>
		<g>
			<g>
				<path fill="#FFFFFF" d="M4.3,16.3v-1h0.8v1H4.3z"/>
				<path fill="#FFFFFF" d="M6.2,16.3v-1H7v1H6.2z"/>
				<path fill="#FFFFFF" d="M8.1,16.3v-1h0.8v1H8.1z"/>
				<path fill="#FFFFFF" d="M10,16.3v-1h0.8v1H10z"/>
				<path fill="#FFFFFF" d="M12,16.3v-1h0.8v1H12z"/>
			</g>
			<g>
				<path fill="#FFFFFF" d="M5.8,18.5v-1h0.8v1H5.8z"/>
				<path fill="#FFFFFF" d="M7.7,18.5v-1h0.8v1H7.7z"/>
				<path fill="#FFFFFF" d="M9.7,18.5v-1h0.8v1H9.7z"/>
				<path fill="#FFFFFF" d="M11.6,18.5v-1h0.8v1H11.6z"/>
				<path fill="#FFFFFF" d="M13.5,18.5v-1h0.8v1H13.5z"/>
			</g>
			<g>
				<path fill="#FFFFFF" d="M3.5,20.7v-1h0.8v1H3.5z"/>
				<path fill="#FFFFFF" d="M5.4,20.7v-1h0.8v1H5.4z"/>
				<path fill="#FFFFFF" d="M7.3,20.7v-1h0.8v1H7.3z"/>
				<path fill="#FFFFFF" d="M9.3,20.7v-1H10v1H9.3z"/>
				<path fill="#FFFFFF" d="M11.2,20.7v-1H12v1H11.2z"/>
			</g>
		</g>
	</g>
</g>
<g id="Layer_6" display="none">
	<g display="inline">
		<path fill="#FF6C2C" d="M37.5,22.8h-35c-0.5,0-1-0.4-1-1v-7.6c0-0.6,0.5-1,1-1h35c0.5,0,1,0.4,1,1v7.6
			C38.5,22.4,38,22.8,37.5,22.8z"/>
		<rect x="26.7" y="15.9" fill="#FFFFFF" width="7.8" height="4.2"/>
		<g>
			<g>
				<path fill="#FFFFFF" d="M4.3,16.3v-1h0.8v1H4.3z"/>
				<path fill="#FFFFFF" d="M6.2,16.3v-1H7v1H6.2z"/>
				<path fill="#FFFFFF" d="M8.1,16.3v-1h0.8v1H8.1z"/>
				<path fill="#FFFFFF" d="M10,16.3v-1h0.8v1H10z"/>
				<path fill="#FFFFFF" d="M12,16.3v-1h0.8v1H12z"/>
			</g>
			<g>
				<path fill="#FFFFFF" d="M5.8,18.5v-1h0.8v1H5.8z"/>
				<path fill="#FFFFFF" d="M7.7,18.5v-1h0.8v1H7.7z"/>
				<path fill="#FFFFFF" d="M9.7,18.5v-1h0.8v1H9.7z"/>
				<path fill="#FFFFFF" d="M11.6,18.5v-1h0.8v1H11.6z"/>
				<path fill="#FFFFFF" d="M13.5,18.5v-1h0.8v1H13.5z"/>
			</g>
			<g>
				<path fill="#FFFFFF" d="M3.5,20.7v-1h0.8v1H3.5z"/>
				<path fill="#FFFFFF" d="M5.4,20.7v-1h0.8v1H5.4z"/>
				<path fill="#FFFFFF" d="M7.3,20.7v-1h0.8v1H7.3z"/>
				<path fill="#FFFFFF" d="M9.3,20.7v-1H10v1H9.3z"/>
				<path fill="#FFFFFF" d="M11.2,20.7v-1H12v1H11.2z"/>
			</g>
		</g>
	</g>
</g>
</svg>
