<?xml version="1.0" encoding="utf-8"?>
<!-- Generator: Adobe Illustrator 18.1.0, SVG Export Plug-In . SVG Version: 6.00 Build 0)  -->
<svg version="1.1" xmlns="http://www.w3.org/2000/svg" xmlns:xlink="http://www.w3.org/1999/xlink" x="0px" y="0px"
	 viewBox="0 0 40 40" enable-background="new 0 0 40 40" xml:space="preserve">
<g id="Layer_1">
	<g>
		<path fill="none" stroke="#009444" stroke-width="2" stroke-miterlimit="10" d="M17,19.1H4.7c-0.5,0-1-0.4-1-1V6.7
			c0-0.6,0.5-1,1-1H17c0.5,0,1,0.4,1,1v11.5C18,18.7,17.5,19.1,17,19.1z"/>
		<path fill="none" stroke="#1C75BC" stroke-width="2" stroke-miterlimit="10" d="M26.2,25.9H13.9c-0.6,0-1-0.4-1-1V13.4
			c0-0.5,0.4-1,1-1h12.3c0.5,0,1,0.5,1,1v11.5C27.2,25.4,26.8,25.9,26.2,25.9z"/>
		<path fill="none" stroke="#F15A29" stroke-width="2" stroke-miterlimit="10" d="M35.3,19.1H23c-0.6,0-1-0.4-1-1V6.7
			c0-0.6,0.4-1,1-1h12.3c0.6,0,1,0.4,1,1v11.5C36.3,18.7,35.9,19.1,35.3,19.1z"/>
		<g>
			<path d="M3.3,34.2c0-0.3,0-0.6,0.1-0.9c0.1-0.3,0.2-0.5,0.4-0.7s0.4-0.4,0.6-0.5s0.5-0.2,0.9-0.2c0.3,0,0.6,0.1,0.9,0.2
				c0.3,0.1,0.5,0.3,0.6,0.5s0.3,0.4,0.4,0.7c0.1,0.3,0.1,0.6,0.1,0.9c0,0.3,0,0.6-0.1,0.9c-0.1,0.3-0.2,0.5-0.4,0.7
				c-0.2,0.2-0.4,0.4-0.6,0.5s-0.5,0.2-0.9,0.2s-0.6-0.1-0.9-0.2S4,36,3.8,35.8c-0.2-0.2-0.3-0.4-0.4-0.7
				C3.3,34.8,3.3,34.5,3.3,34.2z M5.3,36.1c0.3,0,0.5-0.1,0.7-0.2c0.2-0.1,0.4-0.2,0.5-0.4c0.1-0.2,0.2-0.4,0.3-0.6
				c0.1-0.2,0.1-0.5,0.1-0.7c0-0.3,0-0.6-0.1-0.8c-0.1-0.2-0.2-0.4-0.3-0.6S6.2,32.5,6,32.4c-0.2-0.1-0.4-0.1-0.7-0.1
				c-0.3,0-0.5,0.1-0.7,0.2c-0.2,0.1-0.4,0.3-0.5,0.4s-0.2,0.4-0.3,0.6c-0.1,0.2-0.1,0.5-0.1,0.7c0,0.3,0,0.5,0.1,0.7
				c0.1,0.2,0.2,0.4,0.3,0.6c0.1,0.2,0.3,0.3,0.5,0.4C4.8,36.1,5,36.1,5.3,36.1z"/>
			<path d="M8.5,37.6H8.2v-4.3h0.4v0.5h0c0.1-0.1,0.1-0.2,0.2-0.3s0.2-0.1,0.3-0.2s0.2-0.1,0.3-0.1c0.1,0,0.2,0,0.3,0
				c0.3,0,0.5,0,0.6,0.1c0.2,0.1,0.3,0.2,0.4,0.3c0.1,0.1,0.2,0.3,0.2,0.5s0.1,0.4,0.1,0.6c0,0.2,0,0.4-0.1,0.6
				c-0.1,0.2-0.1,0.4-0.3,0.5c-0.1,0.1-0.3,0.3-0.4,0.4c-0.2,0.1-0.4,0.1-0.6,0.1c-0.2,0-0.4,0-0.6-0.1c-0.2-0.1-0.4-0.2-0.5-0.4
				V37.6z M8.5,34.8c0,0.2,0,0.3,0.1,0.5c0,0.2,0.1,0.3,0.2,0.4C8.9,35.9,9,36,9.1,36c0.1,0.1,0.3,0.1,0.4,0.1c0.2,0,0.3,0,0.5-0.1
				c0.1-0.1,0.3-0.2,0.3-0.3s0.2-0.3,0.2-0.4s0.1-0.4,0-0.5c0-0.2,0-0.4-0.1-0.5c-0.1-0.2-0.1-0.3-0.2-0.4c-0.1-0.1-0.2-0.2-0.3-0.2
				c-0.1-0.1-0.3-0.1-0.4-0.1c-0.2,0-0.3,0-0.4,0.1c-0.1,0.1-0.2,0.2-0.3,0.3s-0.2,0.3-0.2,0.4S8.5,34.6,8.5,34.8z"/>
			<path d="M12.1,34.9c0,0.2,0,0.3,0.1,0.5c0,0.2,0.1,0.3,0.2,0.4c0.1,0.1,0.2,0.2,0.3,0.3c0.1,0.1,0.3,0.1,0.5,0.1
				c0.2,0,0.4-0.1,0.6-0.2s0.3-0.3,0.3-0.5h0.4c0,0.1-0.1,0.3-0.2,0.4c-0.1,0.1-0.2,0.2-0.3,0.3c-0.1,0.1-0.2,0.2-0.4,0.2
				s-0.3,0.1-0.5,0.1c-0.2,0-0.5,0-0.6-0.1c-0.2-0.1-0.3-0.2-0.4-0.3c-0.1-0.1-0.2-0.3-0.3-0.5s-0.1-0.4-0.1-0.6
				c0-0.2,0-0.4,0.1-0.6c0.1-0.2,0.2-0.4,0.3-0.5c0.1-0.2,0.3-0.3,0.4-0.4c0.2-0.1,0.4-0.1,0.6-0.1c0.4,0,0.8,0.1,1,0.4
				c0.2,0.3,0.4,0.7,0.4,1.3H12.1z M14.1,34.6c0-0.2,0-0.3-0.1-0.4s-0.1-0.2-0.2-0.3c-0.1-0.1-0.2-0.2-0.3-0.2s-0.3-0.1-0.4-0.1
				c-0.2,0-0.3,0-0.4,0.1c-0.1,0.1-0.2,0.1-0.3,0.2s-0.2,0.2-0.2,0.3c-0.1,0.1-0.1,0.3-0.1,0.4H14.1z"/>
			<path d="M15.6,36.4h-0.4v-3.1h0.4v0.4c0.1-0.2,0.3-0.3,0.4-0.4c0.2-0.1,0.3-0.1,0.6-0.1c0.2,0,0.4,0,0.5,0.1
				c0.2,0.1,0.3,0.2,0.4,0.3c0.1,0.1,0.1,0.2,0.1,0.3s0,0.2,0,0.4v2h-0.4v-2c0-0.3-0.1-0.5-0.2-0.6s-0.3-0.2-0.6-0.2
				c-0.1,0-0.2,0-0.3,0.1c-0.1,0-0.2,0.1-0.2,0.1c-0.1,0.1-0.1,0.1-0.2,0.2c-0.1,0.1-0.1,0.1-0.1,0.2c0,0.1-0.1,0.2-0.1,0.3
				c0,0.1,0,0.2,0,0.3V36.4z"/>
			<path d="M18.3,32h0.4l1.3,3.8l1.3-3.8h0.4l-1.5,4.3h-0.5L18.3,32z"/>
			<path d="M22.1,36.4V36l2.8-3.6h-2.5V32h3v0.3L22.6,36h2.8v0.3H22.1z"/>
			<path d="M27.5,32h0.4l1.3,3.8l1.3-3.8H31l-1.5,4.3H29L27.5,32z"/>
			<path d="M31.6,36.4V32h0.6l1.4,3.8h0L35,32h0.6v4.3h-0.4v-3.9h0l-1.4,3.9h-0.4L32,32.5h0v3.9H31.6z"/>
		</g>
	</g>
</g>
<g id="Layer_3" display="none">
	<g display="inline">
		<path d="M11.5,34.5l-1.3,1.9H9.8l1.5-2.2L9.9,32h0.5l1.2,1.8l1.2-1.8h0.5l-1.4,2.1l1.5,2.2h-0.5L11.5,34.5z"/>
		<path d="M14.1,34.9c0,0.2,0,0.3,0.1,0.5c0,0.2,0.1,0.3,0.2,0.4c0.1,0.1,0.2,0.2,0.3,0.3c0.1,0.1,0.3,0.1,0.5,0.1
			c0.2,0,0.4-0.1,0.6-0.2s0.3-0.3,0.3-0.5h0.4c0,0.1-0.1,0.3-0.2,0.4c-0.1,0.1-0.2,0.2-0.3,0.3s-0.2,0.2-0.4,0.2
			c-0.1,0.1-0.3,0.1-0.5,0.1c-0.2,0-0.5,0-0.6-0.1c-0.2-0.1-0.3-0.2-0.4-0.3c-0.1-0.1-0.2-0.3-0.3-0.5c-0.1-0.2-0.1-0.4-0.1-0.6
			c0-0.2,0-0.4,0.1-0.6s0.2-0.4,0.3-0.5c0.1-0.1,0.3-0.3,0.4-0.4c0.2-0.1,0.4-0.1,0.6-0.1c0.4,0,0.8,0.1,1,0.4
			c0.2,0.3,0.4,0.7,0.4,1.3H14.1z M16.1,34.6c0-0.2,0-0.3-0.1-0.4c0-0.1-0.1-0.2-0.2-0.3c-0.1-0.1-0.2-0.2-0.3-0.2
			c-0.1-0.1-0.3-0.1-0.4-0.1c-0.2,0-0.3,0-0.4,0.1c-0.1,0.1-0.2,0.1-0.3,0.2c-0.1,0.1-0.2,0.2-0.2,0.3c-0.1,0.1-0.1,0.3-0.1,0.4
			H16.1z"/>
		<path d="M17.6,36.4h-0.4v-3.1h0.4v0.4c0.1-0.2,0.3-0.3,0.4-0.4c0.2-0.1,0.3-0.1,0.6-0.1c0.2,0,0.4,0,0.5,0.1s0.3,0.2,0.4,0.3
			c0.1,0.1,0.1,0.2,0.1,0.3c0,0.1,0,0.2,0,0.4v2h-0.4v-2c0-0.3-0.1-0.5-0.2-0.6c-0.1-0.1-0.3-0.2-0.6-0.2c-0.1,0-0.2,0-0.3,0.1
			c-0.1,0-0.2,0.1-0.2,0.1c-0.1,0.1-0.1,0.1-0.2,0.2c-0.1,0.1-0.1,0.1-0.1,0.2c0,0.1-0.1,0.2-0.1,0.3c0,0.1,0,0.2,0,0.3V36.4z"/>
		<path d="M22,32h0.4l1.3,3.8l1.3-3.8h0.4L24,36.4h-0.5L22,32z"/>
		<path d="M26.1,36.4V32h0.6l1.4,3.8h0l1.4-3.8h0.6v4.3h-0.4v-3.9h0l-1.4,3.9H28l-1.4-3.9h0v3.9H26.1z"/>
	</g>
	<g display="inline">
		<rect x="15.8" y="9.5" fill="#F58035" width="10.9" height="11.3"/>
		<path fill="none" stroke="#009444" stroke-width="2" stroke-miterlimit="10" d="M24.8,21.1H7.6c-0.6,0-1-0.5-1-1V4
			c0-0.5,0.4-1,1-1h17.2c0.5,0,1,0.5,1,1v16.1C25.8,20.7,25.4,21.1,24.8,21.1z"/>
		<path fill="none" stroke="#1C75BC" stroke-width="2" stroke-miterlimit="10" d="M34,26.9H16.8c-0.5,0-1-0.4-1-1V9.8
			c0-0.5,0.4-1,1-1H34c0.5,0,1,0.5,1,1v16.1C35,26.4,34.5,26.9,34,26.9z"/>
	</g>
</g>
<g id="Layer_4" display="none">
	<g display="inline">
		<path d="M10.3,36.2v-4.3h2.9v0.3h-2.5v1.6h2.2v0.3h-2.2v1.7h2.5v0.3H10.3z"/>
		<path d="M15.9,34.3v-0.3h1.8v2.2h-0.3v-0.7c-0.1,0.1-0.2,0.2-0.3,0.4C17,35.9,16.9,36,16.8,36c-0.1,0.1-0.3,0.1-0.4,0.2
			s-0.4,0.1-0.6,0.1c-0.3,0-0.5,0-0.8-0.1c-0.2-0.1-0.4-0.2-0.6-0.4c-0.2-0.2-0.3-0.4-0.4-0.7c-0.1-0.3-0.1-0.6-0.1-1
			c0-0.3,0-0.6,0.1-0.9c0.1-0.3,0.2-0.5,0.4-0.7s0.4-0.4,0.6-0.5c0.2-0.1,0.5-0.2,0.9-0.2c0.2,0,0.4,0,0.6,0.1
			c0.2,0.1,0.4,0.1,0.5,0.3c0.2,0.1,0.3,0.3,0.4,0.4c0.1,0.2,0.2,0.4,0.2,0.6h-0.4c0-0.2-0.1-0.3-0.2-0.4s-0.2-0.2-0.3-0.3
			s-0.3-0.2-0.4-0.2s-0.3-0.1-0.5-0.1c-0.3,0-0.5,0-0.7,0.1c-0.2,0.1-0.4,0.2-0.5,0.4c-0.1,0.2-0.2,0.4-0.3,0.7s-0.1,0.5-0.1,0.8
			c0,0.2,0,0.5,0.1,0.7c0.1,0.2,0.2,0.4,0.3,0.6c0.1,0.2,0.3,0.3,0.5,0.4c0.2,0.1,0.4,0.1,0.7,0.1c0.1,0,0.2,0,0.4,0
			c0.1,0,0.2-0.1,0.4-0.1c0.1-0.1,0.2-0.1,0.3-0.2c0.1-0.1,0.2-0.2,0.3-0.4c0.1-0.1,0.1-0.3,0.1-0.4c0-0.1,0-0.3,0-0.5H15.9z"/>
		<path d="M20.1,31.8h0.4l1.3,3.8l1.3-3.8h0.4l-1.5,4.3h-0.5L20.1,31.8z"/>
		<path d="M24.2,36.2v-4.3h0.6l1.4,3.8h0l1.4-3.8h0.6v4.3h-0.4v-3.9h0l-1.4,3.9H26l-1.4-3.9h0v3.9H24.2z"/>
	</g>
	<path display="inline" fill="none" stroke="#009BA7" stroke-width="2" stroke-miterlimit="10" d="M17.2,19H5c-0.5,0-1-0.5-1-1V6.5
		c0-0.5,0.5-1,1-1h12.3c0.6,0,1,0.5,1,1V18C18.2,18.6,17.8,19,17.2,19z"/>
	<path display="inline" fill="none" stroke="#3F403F" stroke-width="2" stroke-miterlimit="10" d="M26.5,25.8H14.2c-0.6,0-1-0.5-1-1
		V13.3c0-0.6,0.4-1,1-1h12.3c0.6,0,1,0.4,1,1v11.5C27.5,25.3,27,25.8,26.5,25.8z"/>
	<path display="inline" fill="none" stroke="#009BA7" stroke-width="2" stroke-miterlimit="10" d="M35.6,19H23.3c-0.5,0-1-0.5-1-1
		V6.5c0-0.5,0.5-1,1-1h12.3c0.6,0,1,0.5,1,1V18C36.6,18.6,36.2,19,35.6,19z"/>
</g>
<g id="raw_pc" display="none">
	<g display="inline">
		<path fill="#069CAF" d="M37.5,22.8h-35c-0.5,0-1-0.4-1-1v-7.6c0-0.6,0.5-1,1-1h35c0.5,0,1,0.4,1,1v7.6
			C38.5,22.4,38,22.8,37.5,22.8z"/>
		<rect x="26.7" y="15.9" fill="#FFFFFF" width="7.8" height="4.2"/>
		<g>
			<g>
				<path fill="#FFFFFF" d="M4.3,16.3v-1h0.8v1H4.3z"/>
				<path fill="#FFFFFF" d="M6.2,16.3v-1H7v1H6.2z"/>
				<path fill="#FFFFFF" d="M8.1,16.3v-1h0.8v1H8.1z"/>
				<path fill="#FFFFFF" d="M10,16.3v-1h0.8v1H10z"/>
				<path fill="#FFFFFF" d="M12,16.3v-1h0.8v1H12z"/>
			</g>
			<g>
				<path fill="#FFFFFF" d="M5.8,18.5v-1h0.8v1H5.8z"/>
				<path fill="#FFFFFF" d="M7.7,18.5v-1h0.8v1H7.7z"/>
				<path fill="#FFFFFF" d="M9.7,18.5v-1h0.8v1H9.7z"/>
				<path fill="#FFFFFF" d="M11.6,18.5v-1h0.8v1H11.6z"/>
				<path fill="#FFFFFF" d="M13.5,18.5v-1h0.8v1H13.5z"/>
			</g>
			<g>
				<path fill="#FFFFFF" d="M3.5,20.7v-1h0.8v1H3.5z"/>
				<path fill="#FFFFFF" d="M5.4,20.7v-1h0.8v1H5.4z"/>
				<path fill="#FFFFFF" d="M7.3,20.7v-1h0.8v1H7.3z"/>
				<path fill="#FFFFFF" d="M9.3,20.7v-1H10v1H9.3z"/>
				<path fill="#FFFFFF" d="M11.2,20.7v-1H12v1H11.2z"/>
			</g>
		</g>
	</g>
	<g display="inline">
		<path d="M5.5,34.4v2l-0.4,0V32h1.7c0.5,0,0.8,0.1,1.1,0.3s0.4,0.5,0.4,0.9c0,0.3-0.1,0.5-0.2,0.6C8,34,7.8,34.1,7.6,34.2
			c0.1,0,0.2,0.1,0.3,0.2C7.9,34.5,8,34.6,8,34.7c0,0.1,0.1,0.2,0.1,0.3c0,0.1,0,0.2,0,0.3c0,0.2,0,0.3,0,0.4c0,0.1,0,0.2,0,0.3
			c0,0.1,0,0.1,0.1,0.2s0,0.1,0.1,0.1v0l-0.4,0c0-0.1-0.1-0.2-0.1-0.3s0-0.3,0-0.4c0-0.1,0-0.3,0-0.4c0-0.1,0-0.2,0-0.3
			c0-0.1-0.1-0.2-0.1-0.3c-0.1-0.1-0.1-0.1-0.2-0.2c-0.1,0-0.2-0.1-0.3-0.1c-0.1,0-0.2,0-0.3,0H5.5z M6.8,34.1c0.2,0,0.3,0,0.4,0
			c0.1,0,0.2-0.1,0.3-0.2c0.1-0.1,0.2-0.2,0.2-0.3c0.1-0.1,0.1-0.2,0.1-0.4c0-0.2,0-0.3-0.1-0.4c-0.1-0.1-0.1-0.2-0.2-0.2
			c-0.1-0.1-0.2-0.1-0.3-0.1c-0.1,0-0.3,0-0.4,0H5.5v1.7H6.8z"/>
		<path d="M10.6,34.6c0.1,0,0.1,0,0.2,0c0.1,0,0.2,0,0.2-0.1c0.1,0,0.1-0.1,0.1-0.1c0-0.1,0-0.1,0-0.2c0-0.2-0.1-0.3-0.2-0.5
			c-0.1-0.1-0.3-0.2-0.6-0.2c-0.1,0-0.2,0-0.3,0c-0.1,0-0.2,0.1-0.3,0.1c-0.1,0.1-0.1,0.1-0.2,0.2c0,0.1-0.1,0.2-0.1,0.3H9.1
			c0-0.2,0.1-0.3,0.1-0.5c0.1-0.1,0.2-0.2,0.3-0.3c0.1-0.1,0.2-0.1,0.4-0.2c0.1,0,0.3-0.1,0.5-0.1c0.2,0,0.3,0,0.4,0.1
			c0.1,0,0.3,0.1,0.4,0.2s0.2,0.2,0.2,0.3c0.1,0.1,0.1,0.3,0.1,0.5v1.7c0,0.1,0,0.2,0.1,0.3c0.1,0,0.2,0,0.3,0v0.3c0,0-0.1,0-0.1,0
			c-0.1,0-0.1,0-0.2,0c-0.1,0-0.1,0-0.2,0c-0.1,0-0.1,0-0.1-0.1c0,0-0.1-0.1-0.1-0.1s0-0.1,0-0.1c0,0,0-0.1,0-0.2
			c-0.2,0.2-0.3,0.3-0.5,0.4c-0.2,0.1-0.4,0.1-0.6,0.1c-0.1,0-0.3,0-0.4-0.1s-0.2-0.1-0.3-0.2c-0.1-0.1-0.2-0.2-0.2-0.3
			C9,35.8,9,35.7,9,35.6c0-0.5,0.4-0.8,1.1-0.9L10.6,34.6z M11.2,34.7c-0.2,0.1-0.3,0.1-0.5,0.1c-0.2,0-0.3,0-0.5,0
			c-0.3,0-0.5,0.1-0.6,0.2c-0.2,0.1-0.2,0.3-0.2,0.5c0,0.1,0,0.2,0.1,0.2s0.1,0.1,0.2,0.2s0.1,0.1,0.2,0.1c0.1,0,0.2,0,0.2,0
			c0.1,0,0.3,0,0.4-0.1s0.3-0.1,0.4-0.2c0.1-0.1,0.2-0.2,0.3-0.3c0.1-0.1,0.1-0.2,0.1-0.4V34.7z"/>
		<path d="M15.2,35.9l0.8-2.6h0.4l-1,3.1h-0.4l-0.7-2.6h0l-0.7,2.6h-0.4l-0.9-3.1h0.4l0.8,2.7l0.7-2.7h0.4L15.2,35.9z"/>
		<path d="M17,36.4V32h1.6c0.3,0,0.5,0,0.7,0.1c0.2,0.1,0.3,0.2,0.4,0.3c0.1,0.1,0.2,0.2,0.2,0.4c0,0.1,0.1,0.3,0.1,0.5
			c0,0.2,0,0.4-0.1,0.6c-0.1,0.2-0.2,0.3-0.4,0.4c-0.2,0.1-0.3,0.2-0.5,0.2c-0.2,0-0.4,0.1-0.6,0.1h-0.9v1.9H17z M18.3,34.1
			c0.2,0,0.4,0,0.5,0c0.2,0,0.3-0.1,0.4-0.1s0.2-0.2,0.2-0.3c0.1-0.1,0.1-0.3,0.1-0.4c0-0.3-0.1-0.5-0.3-0.6
			c-0.2-0.1-0.5-0.2-0.8-0.2h-1.1v1.7H18.3z"/>
		<path d="M22.5,34.5v-0.3h1.8v2.2H24v-0.7c-0.1,0.1-0.2,0.2-0.3,0.4c-0.1,0.1-0.2,0.2-0.3,0.3c-0.1,0.1-0.3,0.1-0.4,0.2
			c-0.2,0-0.4,0.1-0.6,0.1c-0.3,0-0.5,0-0.8-0.1c-0.2-0.1-0.4-0.2-0.6-0.4c-0.2-0.2-0.3-0.4-0.4-0.7c-0.1-0.3-0.1-0.6-0.1-1
			c0-0.3,0-0.6,0.1-0.9c0.1-0.3,0.2-0.5,0.4-0.7c0.2-0.2,0.4-0.4,0.6-0.5s0.5-0.2,0.9-0.2c0.2,0,0.4,0,0.6,0.1
			c0.2,0.1,0.4,0.1,0.5,0.3c0.2,0.1,0.3,0.3,0.4,0.4s0.2,0.4,0.2,0.6h-0.4c0-0.2-0.1-0.3-0.2-0.4s-0.2-0.2-0.3-0.3s-0.3-0.2-0.4-0.2
			c-0.1,0-0.3-0.1-0.5-0.1c-0.3,0-0.5,0-0.7,0.2c-0.2,0.1-0.4,0.2-0.5,0.4c-0.1,0.2-0.2,0.4-0.3,0.7c-0.1,0.3-0.1,0.5-0.1,0.8
			c0,0.2,0,0.5,0.1,0.7c0.1,0.2,0.2,0.4,0.3,0.6s0.3,0.3,0.5,0.4c0.2,0.1,0.4,0.1,0.7,0.1c0.1,0,0.2,0,0.4,0c0.1,0,0.2-0.1,0.4-0.1
			c0.1-0.1,0.2-0.1,0.3-0.2c0.1-0.1,0.2-0.2,0.3-0.4c0.1-0.1,0.1-0.3,0.1-0.4c0-0.1,0-0.3,0-0.5H22.5z"/>
		<path d="M27.2,36.4V32H30v0.3h-2.5V34h2.2v0.3h-2.2V36h2.5v0.3H27.2z"/>
		<path d="M32.7,34.5v-0.3h1.8v2.2h-0.3v-0.7c-0.1,0.1-0.2,0.2-0.3,0.4c-0.1,0.1-0.2,0.2-0.3,0.3c-0.1,0.1-0.3,0.1-0.4,0.2
			c-0.2,0-0.4,0.1-0.6,0.1c-0.3,0-0.5,0-0.8-0.1c-0.2-0.1-0.4-0.2-0.6-0.4c-0.2-0.2-0.3-0.4-0.4-0.7s-0.1-0.6-0.1-1
			c0-0.3,0-0.6,0.1-0.9c0.1-0.3,0.2-0.5,0.4-0.7c0.2-0.2,0.4-0.4,0.6-0.5s0.5-0.2,0.9-0.2c0.2,0,0.4,0,0.6,0.1s0.4,0.1,0.5,0.3
			s0.3,0.3,0.4,0.4c0.1,0.2,0.2,0.4,0.2,0.6h-0.4c0-0.2-0.1-0.3-0.2-0.4s-0.2-0.2-0.3-0.3s-0.3-0.2-0.4-0.2c-0.1,0-0.3-0.1-0.5-0.1
			c-0.3,0-0.5,0-0.7,0.2c-0.2,0.1-0.4,0.2-0.5,0.4s-0.2,0.4-0.3,0.7c-0.1,0.3-0.1,0.5-0.1,0.8c0,0.2,0,0.5,0.1,0.7s0.2,0.4,0.3,0.6
			c0.1,0.2,0.3,0.3,0.5,0.4c0.2,0.1,0.4,0.1,0.7,0.1c0.1,0,0.2,0,0.4,0c0.1,0,0.2-0.1,0.4-0.1c0.1-0.1,0.2-0.1,0.3-0.2
			c0.1-0.1,0.2-0.2,0.3-0.4c0.1-0.1,0.1-0.3,0.1-0.4c0-0.1,0-0.3,0-0.5H32.7z"/>
	</g>
</g>
<g id="Layer_6" display="none">
	<g display="inline">
		<path fill="#FF6C2C" d="M37.5,22.8h-35c-0.5,0-1-0.4-1-1v-7.6c0-0.6,0.5-1,1-1h35c0.5,0,1,0.4,1,1v7.6
			C38.5,22.4,38,22.8,37.5,22.8z"/>
		<rect x="26.7" y="15.9" fill="#FFFFFF" width="7.8" height="4.2"/>
		<g>
			<g>
				<path fill="#FFFFFF" d="M4.3,16.3v-1h0.8v1H4.3z"/>
				<path fill="#FFFFFF" d="M6.2,16.3v-1H7v1H6.2z"/>
				<path fill="#FFFFFF" d="M8.1,16.3v-1h0.8v1H8.1z"/>
				<path fill="#FFFFFF" d="M10,16.3v-1h0.8v1H10z"/>
				<path fill="#FFFFFF" d="M12,16.3v-1h0.8v1H12z"/>
			</g>
			<g>
				<path fill="#FFFFFF" d="M5.8,18.5v-1h0.8v1H5.8z"/>
				<path fill="#FFFFFF" d="M7.7,18.5v-1h0.8v1H7.7z"/>
				<path fill="#FFFFFF" d="M9.7,18.5v-1h0.8v1H9.7z"/>
				<path fill="#FFFFFF" d="M11.6,18.5v-1h0.8v1H11.6z"/>
				<path fill="#FFFFFF" d="M13.5,18.5v-1h0.8v1H13.5z"/>
			</g>
			<g>
				<path fill="#FFFFFF" d="M3.5,20.7v-1h0.8v1H3.5z"/>
				<path fill="#FFFFFF" d="M5.4,20.7v-1h0.8v1H5.4z"/>
				<path fill="#FFFFFF" d="M7.3,20.7v-1h0.8v1H7.3z"/>
				<path fill="#FFFFFF" d="M9.3,20.7v-1H10v1H9.3z"/>
				<path fill="#FFFFFF" d="M11.2,20.7v-1H12v1H11.2z"/>
			</g>
		</g>
	</g>
	<g display="inline">
		<path d="M5.5,34.4v2l-0.4,0V32h1.7c0.5,0,0.8,0.1,1.1,0.3c0.3,0.2,0.4,0.5,0.4,0.9c0,0.3-0.1,0.5-0.2,0.6C8,34,7.8,34.1,7.6,34.2
			c0.1,0,0.2,0.1,0.3,0.2C8,34.5,8,34.6,8.1,34.7c0,0.1,0.1,0.2,0.1,0.3c0,0.1,0,0.2,0,0.3c0,0.2,0,0.3,0,0.4c0,0.1,0,0.2,0,0.3
			c0,0.1,0,0.1,0.1,0.2s0,0.1,0.1,0.1v0l-0.4,0c0-0.1-0.1-0.2-0.1-0.3s0-0.3,0-0.4c0-0.1,0-0.3,0-0.4s0-0.2,0-0.3
			c0-0.1-0.1-0.2-0.1-0.3c-0.1-0.1-0.1-0.1-0.2-0.2c-0.1,0-0.2-0.1-0.3-0.1c-0.1,0-0.2,0-0.3,0H5.5z M6.8,34.1c0.2,0,0.3,0,0.4,0
			s0.2-0.1,0.3-0.2c0.1-0.1,0.2-0.2,0.2-0.3s0.1-0.2,0.1-0.4c0-0.2,0-0.3-0.1-0.4c-0.1-0.1-0.1-0.2-0.2-0.2
			c-0.1-0.1-0.2-0.1-0.3-0.1c-0.1,0-0.3,0-0.4,0H5.5v1.7H6.8z"/>
		<path d="M10.6,34.6c0.1,0,0.1,0,0.2,0c0.1,0,0.2,0,0.2-0.1s0.1-0.1,0.1-0.1c0-0.1,0-0.1,0-0.2c0-0.2-0.1-0.3-0.2-0.5
			c-0.1-0.1-0.3-0.2-0.6-0.2c-0.1,0-0.2,0-0.3,0c-0.1,0-0.2,0.1-0.3,0.1c-0.1,0.1-0.1,0.1-0.2,0.2c0,0.1-0.1,0.2-0.1,0.3H9.1
			c0-0.2,0.1-0.3,0.1-0.5c0.1-0.1,0.2-0.2,0.3-0.3c0.1-0.1,0.2-0.1,0.4-0.2c0.1,0,0.3-0.1,0.5-0.1c0.2,0,0.3,0,0.4,0.1
			c0.1,0,0.3,0.1,0.4,0.2c0.1,0.1,0.2,0.2,0.2,0.3c0.1,0.1,0.1,0.3,0.1,0.5v1.7c0,0.1,0,0.2,0.1,0.3c0.1,0,0.2,0,0.3,0v0.3
			c0,0-0.1,0-0.1,0c-0.1,0-0.1,0-0.2,0c-0.1,0-0.1,0-0.2,0c-0.1,0-0.1,0-0.1-0.1c0,0-0.1-0.1-0.1-0.1s0-0.1,0-0.1c0,0,0-0.1,0-0.2
			c-0.2,0.2-0.3,0.3-0.5,0.4c-0.2,0.1-0.4,0.1-0.6,0.1c-0.1,0-0.3,0-0.4-0.1c-0.1,0-0.2-0.1-0.3-0.2c-0.1-0.1-0.2-0.2-0.2-0.3
			C9,35.8,9,35.7,9,35.6c0-0.5,0.4-0.8,1.1-0.9L10.6,34.6z M11.2,34.7c-0.2,0.1-0.3,0.1-0.5,0.1c-0.2,0-0.3,0-0.5,0
			c-0.3,0-0.5,0.1-0.6,0.2c-0.2,0.1-0.2,0.3-0.2,0.5c0,0.1,0,0.2,0.1,0.2c0,0.1,0.1,0.1,0.2,0.2s0.1,0.1,0.2,0.1c0.1,0,0.2,0,0.2,0
			c0.1,0,0.3,0,0.4-0.1s0.3-0.1,0.4-0.2c0.1-0.1,0.2-0.2,0.3-0.3s0.1-0.2,0.1-0.4V34.7z"/>
		<path d="M15.2,35.9l0.8-2.6h0.4l-1,3.1H15l-0.7-2.6h0l-0.7,2.6h-0.4l-0.9-3.1h0.4l0.8,2.7l0.7-2.7h0.4L15.2,35.9z"/>
		<path d="M17,36.4V32h1.6c0.3,0,0.5,0,0.7,0.1c0.2,0.1,0.3,0.2,0.4,0.3c0.1,0.1,0.2,0.2,0.2,0.4c0,0.1,0.1,0.3,0.1,0.5
			c0,0.2,0,0.4-0.1,0.6c-0.1,0.2-0.2,0.3-0.4,0.4c-0.2,0.1-0.3,0.2-0.5,0.2c-0.2,0-0.4,0.1-0.6,0.1h-0.9v1.9H17z M18.3,34.1
			c0.2,0,0.4,0,0.5,0c0.2,0,0.3-0.1,0.4-0.1c0.1-0.1,0.2-0.2,0.2-0.3s0.1-0.3,0.1-0.4c0-0.3-0.1-0.5-0.3-0.6
			c-0.2-0.1-0.5-0.2-0.8-0.2h-1.1v1.7H18.3z"/>
		<path d="M22.6,34.5v-0.3h1.8v2.2h-0.3v-0.7c-0.1,0.1-0.2,0.2-0.3,0.4c-0.1,0.1-0.2,0.2-0.3,0.3c-0.1,0.1-0.3,0.1-0.4,0.2
			s-0.4,0.1-0.6,0.1c-0.3,0-0.5,0-0.8-0.1s-0.4-0.2-0.6-0.4c-0.2-0.2-0.3-0.4-0.4-0.7c-0.1-0.3-0.1-0.6-0.1-1c0-0.3,0-0.6,0.1-0.9
			c0.1-0.3,0.2-0.5,0.4-0.7c0.2-0.2,0.4-0.4,0.6-0.5c0.2-0.1,0.5-0.2,0.9-0.2c0.2,0,0.4,0,0.6,0.1c0.2,0.1,0.4,0.1,0.5,0.3
			c0.2,0.1,0.3,0.3,0.4,0.4c0.1,0.2,0.2,0.4,0.2,0.6h-0.4c0-0.2-0.1-0.3-0.2-0.4s-0.2-0.2-0.3-0.3s-0.3-0.2-0.4-0.2
			c-0.1,0-0.3-0.1-0.5-0.1c-0.3,0-0.5,0-0.7,0.1c-0.2,0.1-0.4,0.2-0.5,0.4c-0.1,0.2-0.2,0.4-0.3,0.7C21,33.8,21,34,21,34.3
			c0,0.2,0,0.5,0.1,0.7c0.1,0.2,0.2,0.4,0.3,0.6c0.1,0.2,0.3,0.3,0.5,0.4c0.2,0.1,0.4,0.1,0.7,0.1c0.1,0,0.2,0,0.4,0
			c0.1,0,0.2-0.1,0.4-0.1c0.1-0.1,0.2-0.1,0.3-0.2c0.1-0.1,0.2-0.2,0.3-0.4c0.1-0.1,0.1-0.3,0.1-0.4c0-0.1,0-0.3,0-0.5H22.6z"/>
		<path d="M27.3,36.4V32h0.4v4.3H27.3z"/>
		<path d="M30.7,34.5v-0.3h1.8v2.2h-0.3v-0.7c-0.1,0.1-0.2,0.2-0.3,0.4c-0.1,0.1-0.2,0.2-0.3,0.3s-0.3,0.1-0.4,0.2s-0.4,0.1-0.6,0.1
			c-0.3,0-0.5,0-0.8-0.1c-0.2-0.1-0.4-0.2-0.6-0.4c-0.2-0.2-0.3-0.4-0.4-0.7c-0.1-0.3-0.1-0.6-0.1-1c0-0.3,0-0.6,0.1-0.9
			c0.1-0.3,0.2-0.5,0.4-0.7s0.4-0.4,0.6-0.5c0.2-0.1,0.5-0.2,0.9-0.2c0.2,0,0.4,0,0.6,0.1c0.2,0.1,0.4,0.1,0.5,0.3
			c0.2,0.1,0.3,0.3,0.4,0.4s0.2,0.4,0.2,0.6h-0.4c0-0.2-0.1-0.3-0.2-0.4s-0.2-0.2-0.3-0.3s-0.3-0.2-0.4-0.2c-0.1,0-0.3-0.1-0.5-0.1
			c-0.3,0-0.5,0-0.7,0.1c-0.2,0.1-0.4,0.2-0.5,0.4c-0.1,0.2-0.2,0.4-0.3,0.7c-0.1,0.3-0.1,0.5-0.1,0.8c0,0.2,0,0.5,0.1,0.7
			c0.1,0.2,0.2,0.4,0.3,0.6s0.3,0.3,0.5,0.4c0.2,0.1,0.4,0.1,0.7,0.1c0.1,0,0.2,0,0.4,0c0.1,0,0.2-0.1,0.4-0.1
			c0.1-0.1,0.2-0.1,0.3-0.2c0.1-0.1,0.2-0.2,0.3-0.4c0.1-0.1,0.1-0.3,0.1-0.4c0-0.1,0-0.3,0-0.5H30.7z"/>
	</g>
</g>
<g id="Layer_2">
	<rect fill="none" stroke="#808285" stroke-width="0.25" stroke-miterlimit="10" width="40" height="40"/>
	<g>
	</g>
	<g>
	</g>
	<g>
	</g>
	<g>
	</g>
	<g>
	</g>
	<g>
	</g>
</g>
</svg>
