<?xml version="1.0" encoding="UTF-8" standalone="no"?>
<!-- Created with VectorDraw -->
<svg 
 	 width = "595.000000" 
 	 height = "841.000000" 
xmlns:dc="http://purl.org/dc/elements/1.1/"
xmlns:cc="http://web.resource.org/cc/"
xmlns:rdf="http://www.w3.org/1999/02/22-rdf-syntax-ns#"
 xmlns:svg="http://www.w3.org/2000/svg"
 xmlns="http://www.w3.org/2000/svg" 
 xmlns:sodipodi="http://inkscape.sourceforge.net/DTD/sodipodi-0.dtd"
 xmlns:inkscape="http://www.inkscape.org/namespaces/inkscape"
 >
<g inkscape:label="Background" inkscape:groupmode="layer" id="Background">
<path  style="fill:none;stroke:#000000;stroke-width:1.000000px;stroke-opacity:1.000000;stroke-linecap:butt;stroke-linejoin:miter;" 
 d="M 131.250000,217.718750 C 131.250000,217.718750 131.250000,217.718750 131.250000,217.718750 C 131.250000,217.718750 131.250000,217.718750 131.250000,217.718750 C 131.250000,217.718750 131.250000,217.718750 131.250000,217.718750 C 131.250000,217.718750 131.250000,217.718750 131.250000,217.718750  z"  />
<path  style="fill:none;stroke:#000000;stroke-width:3.000000px;stroke-opacity:1.000000;stroke-linecap:butt;stroke-linejoin:miter;" 
 d="M 129.164062,179.949219 C 129.164062,179.949219 129.164062,179.949219 129.164062,179.949219 C 129.164062,179.949219 129.164062,179.949219 129.164062,179.949219 C 129.164062,179.949219 129.164062,179.949219 129.164062,179.949219 C 129.164062,179.949219 129.164062,179.949219 129.164062,179.949219  z"  />
<path  style="fill:#83b8bf;fill-opacity:1.000000;stroke:#000000;stroke-width:5.000000px;stroke-opacity:1.000000;stroke-linecap:butt;stroke-linejoin:miter;" 
 d="M 494.765381,152.861572 C 607.671936,252.999863 607.671936,415.355957 494.765381,515.494263 C 381.858948,615.632080 198.801208,615.632080 85.894768,515.494263 C -27.011795,415.355957 -27.011795,252.999863 85.894768,152.861572 C 198.801208,52.723228 381.858948,52.723228 494.765381,152.861572  z"  />
<path  style="fill:none;stroke:#000000;stroke-width:1.000000px;stroke-opacity:1.000000;stroke-linecap:butt;stroke-linejoin:miter;" 
 d="M 244.660156,347.613281 C 244.660156,347.613281 244.660156,347.613281 244.660156,347.613281 C 244.660156,347.613281 244.660156,347.613281 244.660156,347.613281 C 244.660156,347.613281 244.660156,347.613281 244.660156,347.613281 C 244.660156,347.613281 244.660156,347.613281 244.660156,347.613281  z"  />
<path  style="fill:none;stroke:#000000;stroke-width:1.000000px;stroke-opacity:1.000000;stroke-linecap:butt;stroke-linejoin:miter;" 
 d="M 120.570312,330.984375 C 120.570312,330.984375 120.570312,330.984375 120.570312,330.984375 C 120.570312,330.984375 120.570312,330.984375 120.570312,330.984375 C 120.570312,330.984375 120.570312,330.984375 120.570312,330.984375 C 120.570312,330.984375 120.570312,330.984375 120.570312,330.984375  z"  />
<path  style="fill:none;stroke:none;" 
 d="M 32.140625,78.585938 C 32.140625,78.585938 32.140625,78.585938 32.140625,78.585938 C 32.140625,78.585938 32.140625,78.585938 32.140625,78.585938 C 32.140625,78.585938 32.140625,78.585938 32.140625,78.585938  z"  />
<path  style="fill:none;stroke:none;" 
 d="M nan,nan C nan,nan nan,nan nan,nan C nan,nan nan,nan nan,nan C nan,nan nan,nan nan,nan C nan,nan nan,nan nan,nan  zM nan,nan M nan,nan "  />
<path  style="fill:none;stroke:none;" 
 d="M 89.527344,98.746094 C 89.527344,98.746094 89.527344,98.746094 89.527344,98.746094 C 89.527344,98.746094 89.527344,98.746094 89.527344,98.746094 C 89.527344,98.746094 89.527344,98.746094 89.527344,98.746094  z"  />
<path  style="fill:none;stroke:none;" 
 d="M 85.273438,85.714844 C 85.273438,85.714844 85.273438,85.714844 85.273438,85.714844 C 85.273438,85.714844 85.273438,85.714844 85.273438,85.714844 C 85.273438,85.714844 85.273438,85.714844 85.273438,85.714844  z"  />
<path  style="fill:none;stroke:none;" 
 d="M 66.871094,93.355469 C 66.871094,93.355469 66.871094,93.355469 66.871094,93.355469 C 66.871094,93.355469 66.871094,93.355469 66.871094,93.355469 C 66.871094,93.355469 66.871094,93.355469 66.871094,93.355469  z"  />
<path  style="fill:none;stroke:none;" 
 d="M 76.980469,83.980469 C 76.980469,83.980469 76.980469,83.980469 76.980469,83.980469 C 76.980469,83.980469 76.980469,83.980469 76.980469,83.980469 C 76.980469,83.980469 76.980469,83.980469 76.980469,83.980469  z"  />
<path  style="fill:none;stroke:none;" 
 d="M 76.980469,83.980469 C 76.980469,83.980469 76.980469,83.980469 76.980469,83.980469 C 76.980469,83.980469 76.980469,83.980469 76.980469,83.980469 C 76.980469,83.980469 76.980469,83.980469 76.980469,83.980469  z"  />
<path  style="fill:none;stroke:none;" 
 d="M 140.371094,171.210938 C 140.371094,171.210938 140.371094,171.210938 140.371094,171.210938 C 140.371094,171.210938 140.371094,171.210938 140.371094,171.210938 C 140.371094,171.210938 140.371094,171.210938 140.371094,171.210938  z"  />
<path  style="fill:none;stroke:none;" 
 d="M 140.371094,171.210938 C 140.371094,171.210938 140.371094,171.210938 140.371094,171.210938 C 140.371094,171.210938 140.371094,171.210938 140.371094,171.210938 C 140.371094,171.210938 140.371094,171.210938 140.371094,171.210938  z"  />
<path  style="fill:none;stroke:none;" 
 d="M 42.882812,92.335938 C 42.882812,92.335938 42.882812,92.335938 42.882812,92.335938 C 42.882812,92.335938 42.882812,92.335938 42.882812,92.335938 C 42.882812,92.335938 42.882812,92.335938 42.882812,92.335938  z"  />
<path  style="fill:none;stroke:none;" 
 d="M 42.882812,92.335938 C 42.882812,92.335938 42.882812,92.335938 42.882812,92.335938 C 42.882812,92.335938 42.882812,92.335938 42.882812,92.335938 C 42.882812,92.335938 42.882812,92.335938 42.882812,92.335938  z"  />
<path  style="fill:none;stroke:none;" 
 d="M 39.105469,90.558594 C 39.105469,90.558594 39.105469,90.558594 39.105469,90.558594 C 39.105469,90.558594 39.105469,90.558594 39.105469,90.558594 C 39.105469,90.558594 39.105469,90.558594 39.105469,90.558594  z"  />
<path  style="fill:none;stroke:none;" 
 d="M nan,nan C nan,nan nan,nan nan,nan C nan,nan nan,nan nan,nan C nan,nan nan,nan nan,nan C nan,nan nan,nan nan,nan  zM nan,nan M nan,nan "  />
<path  style="fill:none;stroke:none;" 
 d="M 68.902344,75.417969 C 68.902344,75.417969 68.902344,75.417969 68.902344,75.417969 C 68.902344,75.417969 68.902344,75.417969 68.902344,75.417969 C 68.902344,75.417969 68.902344,75.417969 68.902344,75.417969  z"  />
<path  style="fill:none;stroke:none;" 
 d="M 68.902344,75.417969 C 68.902344,75.417969 68.902344,75.417969 68.902344,75.417969 C 68.902344,75.417969 68.902344,75.417969 68.902344,75.417969 C 68.902344,75.417969 68.902344,75.417969 68.902344,75.417969  z"  />
<path  style="fill:none;stroke:none;" 
 d="M 38.773438,74.722656 C 38.773438,74.722656 38.773438,74.722656 38.773438,74.722656 C 38.773438,74.722656 38.773438,74.722656 38.773438,74.722656 C 38.773438,74.722656 38.773438,74.722656 38.773438,74.722656  z"  />
<path  style="fill:none;stroke:none;" 
 d="M 38.773438,74.722656 C 38.773438,74.722656 38.773438,74.722656 38.773438,74.722656 C 38.773438,74.722656 38.773438,74.722656 38.773438,74.722656 C 38.773438,74.722656 38.773438,74.722656 38.773438,74.722656  z"  />
<path  style="fill:none;stroke:none;" 
 d="M 49.234375,73.210938 C 49.234375,73.210938 49.234375,73.210938 49.234375,73.210938 C 49.234375,73.210938 49.234375,73.210938 49.234375,73.210938 C 49.234375,73.210938 49.234375,73.210938 49.234375,73.210938  z"  />
<path  style="fill:none;stroke:none;" 
 d="M 49.234375,73.210938 C 49.234375,73.210938 49.234375,73.210938 49.234375,73.210938 C 49.234375,73.210938 49.234375,73.210938 49.234375,73.210938 C 49.234375,73.210938 49.234375,73.210938 49.234375,73.210938  z"  />
<path  style="fill:none;stroke:none;" 
 d="M 25.007812,74.250000 C 25.007812,74.250000 25.007812,74.250000 25.007812,74.250000 C 25.007812,74.250000 25.007812,74.250000 25.007812,74.250000 C 25.007812,74.250000 25.007812,74.250000 25.007812,74.250000  z"  />
<path  style="fill:none;stroke:none;" 
 d="M nan,nan C nan,nan nan,nan nan,nan C nan,nan nan,nan nan,nan C nan,nan nan,nan nan,nan C nan,nan nan,nan nan,nan  zM nan,nan M nan,nan "  />
<path  style="fill:none;stroke:none;" 
 d="M 110.023438,309.445312 C 110.023438,309.445312 110.023438,309.445312 110.023438,309.445312 C 110.023438,309.445312 110.023438,309.445312 110.023438,309.445312 C 110.023438,309.445312 110.023438,309.445312 110.023438,309.445312  z"  />
<path  style="fill:none;stroke:none;" 
 d="M 104.820312,319.156250 C 104.820312,319.156250 104.820312,319.156250 104.820312,319.156250 C 104.820312,319.156250 104.820312,319.156250 104.820312,319.156250 C 104.820312,319.156250 104.820312,319.156250 104.820312,319.156250  z"  />
<path  style="fill:none;stroke:none;" 
 d="M 104.820312,319.156250 C 104.820312,319.156250 104.820312,319.156250 104.820312,319.156250 C 104.820312,319.156250 104.820312,319.156250 104.820312,319.156250 C 104.820312,319.156250 104.820312,319.156250 104.820312,319.156250  z"  />
<path  style="fill:none;stroke:none;" 
 d="M 163.515625,123.253906 C 163.515625,123.253906 163.515625,123.253906 163.515625,123.253906 C 163.515625,123.253906 163.515625,123.253906 163.515625,123.253906 C 163.515625,123.253906 163.515625,123.253906 163.515625,123.253906  z"  />
<path  style="fill:none;stroke:#000000;stroke-width:36.000000px;stroke-opacity:1.000000;stroke-linecap:butt;stroke-linejoin:miter;" 
 d="M 207.429688,215.343750 C 207.429688,215.343750 288.608948,401.804688 288.608948,401.804688 C 288.608948,401.804688 372.488281,224.069702 372.488281,224.069702 "  />
</g>
</svg>
